<?xml version="1.0" encoding="utf-8"?>
<!-- Generator: Adobe Illustrator 23.0.3, SVG Export Plug-In . SVG Version: 6.00 Build 0)  -->
<svg version="1.1" id="Isolation_Mode" xmlns="http://www.w3.org/2000/svg" xmlns:xlink="http://www.w3.org/1999/xlink" x="0px"
	 y="0px" width="169.3px" height="28px" viewBox="0 0 169.3 28" style="enable-background:new 0 0 169.3 28;" xml:space="preserve">
<style type="text/css">
	.st0{fill:#FFFFFF;}
	.st1{fill:#73C500;}
</style>
<g>
	<g>
		<path class="st0" d="M157.1,1.7c-6.8,0-12.2,5.5-12.2,12.2c0,6.8,5.5,12.2,12.2,12.2c6.8,0,12.2-5.5,12.2-12.2
			S163.9,1.7,157.1,1.7z M157.1,20.6c-3.7,0-6.7-3-6.7-6.7s3-6.7,6.7-6.7s6.7,3,6.7,6.7C163.7,17.6,160.8,20.6,157.1,20.6z"/>
		<path class="st0" d="M103.1,1.7c-6.8,0-12.2,5.5-12.2,12.2c0,6.8,5.5,12.2,12.2,12.2c6.8,0,12.2-5.5,12.2-12.2
			C115.3,7.2,109.9,1.7,103.1,1.7z M103.1,20.6c-3.7,0-6.7-3-6.7-6.7s3-6.7,6.7-6.7s6.7,3,6.7,6.7C109.7,17.6,106.8,20.6,103.1,20.6
			z"/>
		<path class="st0" d="M142.3,12.8h-12.2l5.3,5.2c-1.2,1.6-3.1,2.6-5.3,2.6c-3.7,0-6.7-3-6.7-6.7s3-6.7,6.7-6.7
			c1.7,0,3.3,0.7,4.5,1.8h6.7c-1.8-4.3-6.1-7.3-11.1-7.3C123.4,1.7,118,7.2,118,14s5.5,12.2,12.2,12.2c3.7,0,7.1-1.7,9.3-4.3
			c1.6-1.9,2.6-4.2,2.9-6.8c0-0.4,0.1-0.8,0.1-1.2C142.4,13.5,142.4,13.2,142.3,12.8z"/>
		<path class="st0" d="M80.9,20.3h8.6c0,2,0,3.4,0,5.4c-4.9,0-9.8,0-14.6,0V2.1c2,0,4,0,6.1,0C80.9,14.3,80.9,10.2,80.9,20.3z"/>
	</g>
	<g>
		<path class="st1" d="M43.1,7.5c-3.5,0-5.3,0-8.7,0v3.3h8c0,1.8,0,3.6,0,5.4h-8c0,1.4,0,2.7,0,4.2c3.5,0,5.5,0,9,0
			c0,1.8,0,3.6,0,5.4c-5.5,0-9.6,0-15,0c0-7.9,0-15.8,0-23.6c5.5,0,9.2,0,14.7,0C43.1,3.9,43.1,5.7,43.1,7.5z"/>
		<path class="st1" d="M54.8,14.1v11.6c-2.1,0-4.2,0-6.2,0V2h2.2l11.9,11.7V2.1c2.1,0,4.1,0,6.2,0v23.6h-2.2L54.8,14.1z"/>
		<path class="st1" d="M24.4,12.8H12.2l5.3,5.2c-1.2,1.6-3.1,2.6-5.3,2.6c-3.7,0-6.7-3-6.7-6.7s3-6.7,6.7-6.7c1.7,0,3.3,0.7,4.5,1.8
			h6.7c-1.8-4.3-6.1-7.3-11.2-7.3C5.5,1.7,0,7.2,0,14c0,6.7,5.5,12.2,12.2,12.2c3.7,0,7.1-1.7,9.3-4.3c1.6-1.9,2.6-4.2,2.9-6.8
			c0-0.4,0.1-0.8,0.1-1.2C24.5,13.5,24.5,13.2,24.4,12.8z"/>
	</g>
</g>
</svg>
